<svg xmlns="http://www.w3.org/2000/svg" xmlns:xlink="http://www.w3.org/1999/xlink" viewBox="0 0 299 490.5">
  <g id="Layer_1_Image" data-name="Layer 1 Image">
    <image id="Layer_1_Image-2" data-name="Layer 1 Image" width="598" height="981" transform="scale(0.5)" xlink:href="figure2.png"/>
  </g>
  <g id="tshirt" style="isolation: isolate">
    <path d="M234,268c.14,4.27.32,9.73-1,12.5-19.24,3.64-46,.81-69.5,1-19,.15-45.55,2.88-63.5.5-17.59-2.33-36.39,9.88-36-12l-6,1.5a9.08,9.08,0,0,0,0-6.5c-5.77-2.85-19.7-8.09-28.5-4-.83,1.67-1.67,3.33-2.5,5l-5-4c-2.77-29.21,26.53-95.64,43-106.5,5.77-3.8,15.71-1.76,21.5-5,.55-13.23,12.34-13,26.5-12.5v4.5l69-.5,3-4c16-.46,22.63,1.37,27,12.5,32-.06,46.38,45,54,71,2.06,7,9.83,28.37,6.5,37l-3,3.5-4-4.5c-8.85-.32-22.82.88-26.5,6l-1,4.5Z" fill="none" fill-rule="evenodd"/>
  </g>
  <g id="shadow_Image" data-name="shadow Image">
    <image id="shadow_Image-2" data-name="shadow Image" width="598" height="954" transform="translate(0 13.5) scale(0.5)" xlink:href="figure1.png"/>
  </g>
  <g id="left-hand" style="isolation: isolate">
    <path d="M35.5,259.5c10.22,2.41,18.08,1.27,24,7.5-1.43,4.06-5.16,11.9-3.5,16.5,9.31,19.09,13.58,27.3-4,43l-3-.5c.74-14.72,12.24-34.65-8.5-39C19,282.49,22.6,306.79,20,321l-1,.5c-4.82-1.81-5.5-5.82-7-11-3.44-11.92,2.42-22.87,9-28l6-4.5c2.66-6.61.72-13.25,4.5-18Z" fill="none" fill-rule="evenodd"/>
  </g>
  <g id="right-hand" style="isolation: isolate">
    <path d="M258,257.5l8.5.5q2,9.5,4,19c16.76,6.08,24,26.45,12,42H280c-.46-5.72.47-15.66-1.5-21.5C274.94,287,260.41,282.07,251,290c-12,10.13,2.69,22.76,0,35-11.86-.73-20.23-18.45-14.5-32l6-10c.95-7.16-6.26-14.35-3-21Z" fill="none" fill-rule="evenodd"/>
  </g>
  <g id="pants" style="isolation: isolate">
    <path d="M145,368q.5,23.25,1,46.5c-.33,2.67-.67,5.33-1,8,1.57,9.58,4.06,26.85,2,36-7.47,2.33-71.54,3.2-78,0q1-17.75,2-35.5c-2.88-21.38-2.21-52.63,1-73.5,3.39-22-1.24-47,1.5-66l113.5-2c4.86-.77,38.13-.25,39.5,1.5l1.5,37c4.95,32-2.35,72.43,5,103.5,1.45,6.14,1.86,30.84-.5,33l-1,1.5-73,1-2.5-2.5c.16-21.93,1.27-41.91,0-63-.45-7.5,1.53-18.25-.5-26Z" fill="none" fill-rule="evenodd"/>
  </g>
  <g id="head" style="isolation: isolate">
    <path d="M131.5,16c11.58-.15,31.86-2.81,40.5,1.5q.5,9.49,1,19c30.84-.2,29,19.07,29,49v27c-4.19,12-14.75,10.27-19,16.5q-.25,6.25-.5,12.5c-17.49,2.27-50.57,3.77-68.5.5q-.5-6.75-1-13.5c-23.36-5.54-20-26-20-54,0-8.16-2-18.83.5-25C97.78,39,107,39.16,120,37q.25-9.49.5-19l1.5-.5Z" fill="none" fill-rule="evenodd"/>
  </g>
</svg>
